<svg xmlns="http://www.w3.org/2000/svg" viewBox="0 0 40 40"><path id="reddit"  fill="white" class="c-top-bar--svg" d="M2355.19,56.824c-0.9.9-2.82,1.216-4.19,1.216s-3.28-.32-4.18-1.216a0.533,0.533,0,0,0-.76,0,0.525,0.525,0,0,0,0,.764c1.42,1.42,4.14,1.532,4.94,1.532s3.53-.112,4.95-1.532a0.542,0.542,0,0,0,0-.764A0.533,0.533,0,0,0,2355.19,56.824Zm-6.69-4.74a2.085,2.085,0,1,0-2.08,2.084A2.09,2.09,0,0,0,2348.5,52.084ZM2351,30a20,20,0,1,0,20,20A20,20,0,0,0,2351,30Zm11.6,22.668a5.108,5.108,0,0,1,.07.876c0,4.488-5.22,8.124-11.67,8.124s-11.66-3.636-11.66-8.124a6.437,6.437,0,0,1,.06-0.884,2.916,2.916,0,0,1,1.2-5.576,2.878,2.878,0,0,1,2.01.812,14.335,14.335,0,0,1,7.94-2.472c0-.04,1.46-6.976,1.46-6.976a0.539,0.539,0,0,1,.22-0.328,0.525,0.525,0,0,1,.39-0.072l4.85,1.032a2.087,2.087,0,1,1-.21,1.02l-4.34-.924-1.33,6.252a14.26,14.26,0,0,1,7.8,2.476A2.916,2.916,0,1,1,2362.6,52.668ZM2355.58,50a2.084,2.084,0,1,0,2.09,2.084A2.09,2.09,0,0,0,2355.58,50Z" transform="translate(-2331 -30)"></path></svg>