<svg xmlns="http://www.w3.org/2000/svg" viewBox="0 0 39.84 40"><path id="twitter" class="c-top-bar--svg" fill="white" d="M2516.29,30a20,20,0,1,0,19.92,20A19.962,19.962,0,0,0,2516.29,30Zm10.01,16.21c0.01,0.2.01,0.41,0.01,0.62a13.6,13.6,0,0,1-13.67,13.72,13.384,13.384,0,0,1-7.34-2.18,8.734,8.734,0,0,0,1.15.07,9.658,9.658,0,0,0,5.97-2.06,4.8,4.8,0,0,1-4.49-3.35,4.619,4.619,0,0,0,.91.09,4.807,4.807,0,0,0,1.27-.17,4.818,4.818,0,0,1-3.86-4.73V48.16a4.694,4.694,0,0,0,2.17.6,4.828,4.828,0,0,1-1.49-6.43,13.593,13.593,0,0,0,9.9,5.04,4.417,4.417,0,0,1-.13-1.1,4.8,4.8,0,0,1,8.31-3.3,9.8,9.8,0,0,0,3.05-1.17,4.821,4.821,0,0,1-2.12,2.67,9.64,9.64,0,0,0,2.76-.76A9.672,9.672,0,0,1,2526.3,46.21Z" transform="translate(-2496.38 -30)"></path></svg>